<?xml version="1.0" standalone="no"?>
<!DOCTYPE svg PUBLIC "-//W3C//DTD SVG 20010904//EN"
 "http://www.w3.org/TR/2001/REC-SVG-20010904/DTD/svg10.dtd">
<svg version="1.0" xmlns="http://www.w3.org/2000/svg"
 width="1200.000000pt" height="1200.000000pt" viewBox="0 0 1200.000000 1200.000000"
 preserveAspectRatio="xMidYMid meet">

<g transform="translate(0.000000,1200.000000) scale(0.100000,-0.100000)"
fill="#00FFFF" stroke="none">
<path d="M6142 11988 c3 -7 153 -448 333 -980 181 -533 330 -966 333 -964 2 2
-4 91 -13 198 l-18 193 -283 741 c-156 408 -291 760 -300 783 -11 29 -22 41
-36 41 -12 0 -18 -5 -16 -12z"/>
<path d="M5485 11973 c-16 -2 -95 -10 -175 -19 -783 -84 -1580 -345 -2287
-750 -1000 -572 -1824 -1433 -2352 -2456 -608 -1177 -802 -2486 -569 -3835
l12 -72 35 21 c83 51 461 300 644 427 l199 136 -6 45 c-65 503 -55 1056 30
1565 166 1003 612 1940 1285 2700 136 155 421 432 569 555 359 299 677 504
1095 710 439 216 844 356 1304 449 78 16 145 32 149 36 8 8 18 50 72 297 44
208 43 199 33 197 -5 -1 -21 -4 -38 -6z"/>
<path d="M5997 11950 c-3 -19 -12 -120 -21 -225 -56 -668 -241 -1383 -523
-2025 -129 -293 -382 -766 -569 -1067 -395 -634 -921 -1308 -1435 -1838 -58
-60 -126 -131 -150 -158 -52 -58 -495 -479 -634 -603 -701 -624 -1487 -1208
-2218 -1647 l-207 -125 52 -6 c183 -20 476 -28 654 -17 871 51 1690 6 3164
-174 748 -91 907 -104 2060 -175 624 -39 1153 -70 1176 -70 l40 0 -53 578
c-399 4325 -472 5089 -486 5117 -9 17 -200 572 -425 1235 -225 663 -411 1212
-414 1220 -3 8 -8 0 -11 -20z m310 -1922 c-3 -8 -6 -5 -6 6 -1 11 2 17 5 13 3
-3 4 -12 1 -19z m-27 -210 c-146 -1062 -473 -2144 -871 -2880 -255 -472 -555
-900 -928 -1322 -201 -228 -523 -541 -741 -720 -14 -11 25 27 85 85 375 361
804 903 1137 1435 220 352 470 816 609 1129 274 621 518 1417 671 2197 29 147
54 259 56 248 2 -11 -6 -88 -18 -172z m516 -2520 c-40 -375 -145 -892 -247
-1207 -147 -454 -380 -884 -683 -1262 -114 -142 -305 -349 -407 -439 l-84 -75
103 109 c477 504 849 1182 1097 1997 91 299 215 830 215 920 0 10 3 19 6 19 4
0 4 -28 0 -62z"/>
<path d="M6834 11926 c2 -6 39 -96 81 -201 42 -104 80 -193 83 -197 4 -3 72
-16 152 -28 992 -148 1906 -560 2695 -1217 156 -129 484 -454 619 -613 753
-884 1197 -1960 1286 -3119 13 -173 13 -620 0 -787 -65 -828 -302 -1597 -715
-2319 -17 -29 -28 -75 -40 -170 -21 -168 -56 -357 -100 -541 -19 -81 -34 -148
-33 -150 2 -1 15 -5 30 -9 26 -7 32 0 122 137 682 1039 1019 2249 975 3503
-68 1936 -1056 3700 -2679 4782 -560 373 -1200 656 -1855 818 -283 70 -630
132 -621 111z"/>
<path d="M6935 10528 l-29 -58 347 -3767 c191 -2073 348 -3774 347 -3780 0
-26 16 -10 71 65 l55 78 -377 3724 c-208 2049 -379 3741 -381 3760 l-3 35 -30
-57z"/>
<path d="M7208 9745 c228 -296 437 -756 586 -1285 291 -1041 394 -2567 255
-3805 -49 -446 -144 -916 -245 -1222 -19 -56 -34 -105 -34 -108 0 -4 30 21 68
55 362 333 901 570 1499 659 361 55 803 63 1107 20 38 -5 71 -7 73 -5 6 6 -58
258 -123 481 -153 525 -483 1424 -711 1940 -379 856 -884 1640 -1537 2385
-222 254 -708 721 -916 881 l-45 34 23 -30z"/>
<path d="M21 4101 c-20 -37 -13 -49 32 -55 23 -3 1190 -89 2592 -191 1403
-102 2730 -199 2950 -215 220 -16 718 -53 1108 -81 389 -29 709 -50 711 -48 4
5 -10 139 -16 144 -3 4 -3715 238 -6098 385 -91 6 -302 19 -470 30 -168 10
-388 24 -490 29 -102 6 -213 13 -247 17 -55 5 -63 3 -72 -15z"/>
<path d="M9770 3923 c-304 -21 -522 -53 -751 -112 -154 -39 -405 -124 -424
-143 -7 -7 -4 -9 10 -5 11 3 146 8 300 12 463 10 1044 -24 1201 -70 16 -5 40
13 116 87 89 87 178 202 166 214 -16 16 -458 28 -618 17z"/>
<path d="M10512 3827 c-61 -142 -251 -330 -497 -494 -477 -317 -1348 -675
-2086 -858 -898 -222 -2082 -301 -3303 -220 -362 24 -771 66 -1080 110 -94 13
-171 23 -173 21 -2 -1 35 -106 82 -232 47 -126 88 -235 91 -243 4 -11 8 -10
19 6 19 28 95 58 185 74 97 18 515 18 705 1 327 -30 629 -75 1020 -152 678
-134 993 -166 1528 -157 419 7 668 35 1031 117 441 98 746 207 1291 460 426
197 730 312 918 347 l98 18 24 80 c67 220 123 510 149 775 16 158 31 400 25
400 -2 0 -14 -24 -27 -53z"/>
<path d="M565 3464 c238 -508 553 -990 923 -1414 95 -109 359 -377 482 -489
1156 -1054 2700 -1617 4258 -1551 1081 46 2055 346 2961 914 137 85 395 264
450 312 l24 21 -91 6 c-96 7 -220 30 -285 52 -36 12 -42 11 -150 -37 -131 -59
-338 -139 -434 -167 -252 -75 -603 -147 -883 -181 -96 -12 -222 -32 -280 -45
-1213 -274 -2514 -112 -3630 452 -183 92 -184 93 -337 68 -154 -25 -251 -61
-301 -110 l-43 -44 -79 162 c-75 156 -166 364 -225 515 -26 67 -35 78 -119
149 -137 116 -468 451 -590 598 -196 237 -373 485 -508 713 -33 56 -65 105
-70 108 -9 6 -796 68 -1011 80 l-118 7 56 -119z"/>
<path d="M8680 3514 c-25 -2 -135 -9 -244 -15 -186 -10 -202 -13 -240 -37 -66
-41 -216 -157 -284 -219 l-64 -58 11 -77 c7 -49 7 -86 2 -102 -17 -44 -144
-208 -168 -217 -39 -15 -106 -10 -143 10 -63 33 -68 53 -95 341 -13 145 -26
264 -27 265 -9 7 -1089 -143 -1628 -226 -922 -141 -2115 -342 -2132 -358 -10
-9 -52 -301 -44 -308 19 -19 673 -83 1156 -113 278 -18 1010 -24 1295 -11 666
30 1192 95 1625 200 710 172 1162 326 1720 588 185 87 538 288 527 299 -2 3
-71 12 -153 20 -139 15 -987 28 -1114 18z"/>
<path d="M5175 3488 c-447 -98 -832 -184 -990 -221 -383 -90 -590 -140 -594
-144 -5 -4 38 -143 44 -143 2 0 105 18 227 40 545 97 1478 248 2278 369 140
22 250 40 243 40 -129 11 -1100 81 -1108 80 -5 0 -50 -10 -100 -21z"/>
<path d="M3461 3069 c-1 -3 -19 -123 -41 -265 -21 -142 -38 -260 -36 -261 1
-2 23 -6 47 -9 l45 -6 27 178 28 179 -35 95 c-19 52 -35 92 -35 89z"/>
</g>
</svg>
